<mxfile host="app.diagrams.net" modified="2022-06-14T08:31:23.475Z" agent="5.0 (Windows NT 10.0; Win64; x64) AppleWebKit/537.36 (KHTML, like Gecko) Chrome/101.0.4951.67 Safari/537.36" etag="I0eIKczqgJNqQ5Uh-R8I" version="20.0.1" type="github">
  <diagram id="C5RBs43oDa-KdzZeNtuy" name="Page-1">
    <mxGraphModel dx="920" dy="504" grid="1" gridSize="10" guides="1" tooltips="1" connect="1" arrows="1" fold="1" page="1" pageScale="1" pageWidth="827" pageHeight="1169" math="0" shadow="0">
      <root>
        <mxCell id="WIyWlLk6GJQsqaUBKTNV-0" />
        <mxCell id="WIyWlLk6GJQsqaUBKTNV-1" parent="WIyWlLk6GJQsqaUBKTNV-0" />
        <mxCell id="zkfFHV4jXpPFQw0GAbJ--17" value="Player" style="swimlane;fontStyle=0;align=center;verticalAlign=top;childLayout=stackLayout;horizontal=1;startSize=26;horizontalStack=0;resizeParent=1;resizeLast=0;collapsible=1;marginBottom=0;rounded=0;shadow=0;strokeWidth=1;" parent="WIyWlLk6GJQsqaUBKTNV-1" vertex="1">
          <mxGeometry x="1170" y="120" width="152" height="70" as="geometry">
            <mxRectangle x="550" y="140" width="160" height="26" as="alternateBounds" />
          </mxGeometry>
        </mxCell>
        <mxCell id="lFzl7JNjyZy6LzNihTwQ-79" value="" style="edgeStyle=none;rounded=0;orthogonalLoop=1;jettySize=auto;html=1;align=center;" edge="1" parent="WIyWlLk6GJQsqaUBKTNV-1" source="lFzl7JNjyZy6LzNihTwQ-2">
          <mxGeometry relative="1" as="geometry">
            <mxPoint x="1246" y="160" as="targetPoint" />
          </mxGeometry>
        </mxCell>
        <mxCell id="lFzl7JNjyZy6LzNihTwQ-2" value="Wizard" style="swimlane;fontStyle=0;startSize=20;align=center;" vertex="1" parent="WIyWlLk6GJQsqaUBKTNV-1">
          <mxGeometry x="1170" y="340" width="152" height="60" as="geometry" />
        </mxCell>
        <mxCell id="lFzl7JNjyZy6LzNihTwQ-3" value="system" style="html=1;align=center;" vertex="1" parent="WIyWlLk6GJQsqaUBKTNV-1">
          <mxGeometry x="780" y="105" width="130" height="70" as="geometry" />
        </mxCell>
        <mxCell id="lFzl7JNjyZy6LzNihTwQ-76" value="" style="edgeStyle=none;rounded=0;orthogonalLoop=1;jettySize=auto;html=1;align=center;" edge="1" parent="WIyWlLk6GJQsqaUBKTNV-1" source="lFzl7JNjyZy6LzNihTwQ-16">
          <mxGeometry relative="1" as="geometry">
            <mxPoint x="1065" y="230" as="targetPoint" />
          </mxGeometry>
        </mxCell>
        <mxCell id="lFzl7JNjyZy6LzNihTwQ-16" value="Rogue" style="swimlane;fontStyle=0;startSize=20;align=center;" vertex="1" parent="WIyWlLk6GJQsqaUBKTNV-1">
          <mxGeometry x="990" y="340" width="150" height="60" as="geometry" />
        </mxCell>
        <mxCell id="lFzl7JNjyZy6LzNihTwQ-81" value="" style="edgeStyle=none;rounded=0;orthogonalLoop=1;jettySize=auto;html=1;align=center;" edge="1" parent="WIyWlLk6GJQsqaUBKTNV-1">
          <mxGeometry relative="1" as="geometry">
            <mxPoint x="1466" y="340" as="sourcePoint" />
            <mxPoint x="1466" y="230" as="targetPoint" />
          </mxGeometry>
        </mxCell>
        <mxCell id="lFzl7JNjyZy6LzNihTwQ-17" value="Fighter" style="swimlane;fontStyle=0;startSize=20;" vertex="1" parent="WIyWlLk6GJQsqaUBKTNV-1">
          <mxGeometry x="1360" y="340" width="152" height="60" as="geometry" />
        </mxCell>
        <mxCell id="lFzl7JNjyZy6LzNihTwQ-83" value="" style="edgeStyle=none;rounded=0;orthogonalLoop=1;jettySize=auto;html=1;startArrow=none;align=center;" edge="1" parent="WIyWlLk6GJQsqaUBKTNV-1">
          <mxGeometry relative="1" as="geometry">
            <mxPoint x="1266" y="230" as="sourcePoint" />
            <mxPoint x="1266" y="230" as="targetPoint" />
          </mxGeometry>
        </mxCell>
        <mxCell id="lFzl7JNjyZy6LzNihTwQ-88" value="" style="edgeStyle=none;rounded=0;orthogonalLoop=1;jettySize=auto;html=1;endArrow=none;align=center;" edge="1" parent="WIyWlLk6GJQsqaUBKTNV-1">
          <mxGeometry relative="1" as="geometry">
            <mxPoint x="1466" y="230" as="sourcePoint" />
            <mxPoint x="1250" y="230" as="targetPoint" />
          </mxGeometry>
        </mxCell>
        <mxCell id="lFzl7JNjyZy6LzNihTwQ-90" style="edgeStyle=none;rounded=0;orthogonalLoop=1;jettySize=auto;html=1;exitX=0.25;exitY=0;exitDx=0;exitDy=0;align=center;" edge="1" parent="WIyWlLk6GJQsqaUBKTNV-1" source="lFzl7JNjyZy6LzNihTwQ-3" target="lFzl7JNjyZy6LzNihTwQ-3">
          <mxGeometry relative="1" as="geometry" />
        </mxCell>
        <mxCell id="lFzl7JNjyZy6LzNihTwQ-105" value="" style="edgeStyle=none;rounded=0;orthogonalLoop=1;jettySize=auto;html=1;endArrow=none;align=center;shadow=1;" edge="1" parent="WIyWlLk6GJQsqaUBKTNV-1">
          <mxGeometry relative="1" as="geometry">
            <mxPoint x="1260" y="230" as="sourcePoint" />
            <mxPoint x="1060" y="230" as="targetPoint" />
          </mxGeometry>
        </mxCell>
        <mxCell id="lFzl7JNjyZy6LzNihTwQ-106" value="" style="edgeStyle=none;rounded=0;orthogonalLoop=1;jettySize=auto;html=1;endArrow=none;align=center;" edge="1" parent="WIyWlLk6GJQsqaUBKTNV-1">
          <mxGeometry relative="1" as="geometry">
            <mxPoint x="1170" y="155" as="sourcePoint" />
            <mxPoint x="910" y="154.33" as="targetPoint" />
          </mxGeometry>
        </mxCell>
        <mxCell id="lFzl7JNjyZy6LzNihTwQ-108" style="edgeStyle=none;rounded=0;orthogonalLoop=1;jettySize=auto;html=1;entryX=1;entryY=0.5;entryDx=0;entryDy=0;shadow=1;" edge="1" parent="WIyWlLk6GJQsqaUBKTNV-1">
          <mxGeometry relative="1" as="geometry">
            <mxPoint x="500" y="150" as="sourcePoint" />
            <mxPoint x="500" y="150" as="targetPoint" />
          </mxGeometry>
        </mxCell>
        <mxCell id="lFzl7JNjyZy6LzNihTwQ-120" value="Card" style="swimlane;fontStyle=0;align=center;verticalAlign=top;childLayout=stackLayout;horizontal=1;startSize=26;horizontalStack=0;resizeParent=1;resizeLast=0;collapsible=1;marginBottom=0;rounded=0;shadow=0;strokeWidth=1;" vertex="1" parent="WIyWlLk6GJQsqaUBKTNV-1">
          <mxGeometry x="360" y="120" width="152" height="70" as="geometry">
            <mxRectangle x="550" y="140" width="160" height="26" as="alternateBounds" />
          </mxGeometry>
        </mxCell>
        <mxCell id="lFzl7JNjyZy6LzNihTwQ-121" value="" style="edgeStyle=none;rounded=0;orthogonalLoop=1;jettySize=auto;html=1;align=center;" edge="1" parent="WIyWlLk6GJQsqaUBKTNV-1" source="lFzl7JNjyZy6LzNihTwQ-122">
          <mxGeometry relative="1" as="geometry">
            <mxPoint x="436" y="160" as="targetPoint" />
          </mxGeometry>
        </mxCell>
        <mxCell id="lFzl7JNjyZy6LzNihTwQ-122" value="Goblin" style="swimlane;fontStyle=0;startSize=20;align=center;" vertex="1" parent="WIyWlLk6GJQsqaUBKTNV-1">
          <mxGeometry x="360" y="340" width="152" height="60" as="geometry" />
        </mxCell>
        <mxCell id="lFzl7JNjyZy6LzNihTwQ-123" value="" style="edgeStyle=none;rounded=0;orthogonalLoop=1;jettySize=auto;html=1;align=center;" edge="1" parent="WIyWlLk6GJQsqaUBKTNV-1" source="lFzl7JNjyZy6LzNihTwQ-124">
          <mxGeometry relative="1" as="geometry">
            <mxPoint x="255" y="230" as="targetPoint" />
            <Array as="points">
              <mxPoint x="255" y="280" />
            </Array>
          </mxGeometry>
        </mxCell>
        <mxCell id="lFzl7JNjyZy6LzNihTwQ-124" value="Vampire" style="swimlane;fontStyle=0;startSize=20;align=center;" vertex="1" parent="WIyWlLk6GJQsqaUBKTNV-1">
          <mxGeometry x="180" y="340" width="150" height="60" as="geometry" />
        </mxCell>
        <mxCell id="lFzl7JNjyZy6LzNihTwQ-125" value="" style="edgeStyle=none;rounded=0;orthogonalLoop=1;jettySize=auto;html=1;align=center;" edge="1" parent="WIyWlLk6GJQsqaUBKTNV-1">
          <mxGeometry relative="1" as="geometry">
            <mxPoint x="656" y="340" as="sourcePoint" />
            <mxPoint x="656" y="230" as="targetPoint" />
          </mxGeometry>
        </mxCell>
        <mxCell id="lFzl7JNjyZy6LzNihTwQ-126" value="Dragon" style="swimlane;fontStyle=0;startSize=20;" vertex="1" parent="WIyWlLk6GJQsqaUBKTNV-1">
          <mxGeometry x="550" y="340" width="152" height="60" as="geometry" />
        </mxCell>
        <mxCell id="lFzl7JNjyZy6LzNihTwQ-127" value="" style="edgeStyle=none;rounded=0;orthogonalLoop=1;jettySize=auto;html=1;startArrow=none;align=center;" edge="1" parent="WIyWlLk6GJQsqaUBKTNV-1">
          <mxGeometry relative="1" as="geometry">
            <mxPoint x="456" y="230" as="sourcePoint" />
            <mxPoint x="456" y="230" as="targetPoint" />
          </mxGeometry>
        </mxCell>
        <mxCell id="lFzl7JNjyZy6LzNihTwQ-128" value="" style="edgeStyle=none;rounded=0;orthogonalLoop=1;jettySize=auto;html=1;endArrow=none;align=center;" edge="1" parent="WIyWlLk6GJQsqaUBKTNV-1">
          <mxGeometry relative="1" as="geometry">
            <mxPoint x="656" y="230" as="sourcePoint" />
            <mxPoint x="250" y="230" as="targetPoint" />
          </mxGeometry>
        </mxCell>
        <mxCell id="lFzl7JNjyZy6LzNihTwQ-130" value="" style="edgeStyle=none;rounded=0;orthogonalLoop=1;jettySize=auto;html=1;endArrow=none;align=center;" edge="1" parent="WIyWlLk6GJQsqaUBKTNV-1">
          <mxGeometry relative="1" as="geometry">
            <mxPoint x="772" y="154.84" as="sourcePoint" />
            <mxPoint x="512" y="154.17000000000004" as="targetPoint" />
          </mxGeometry>
        </mxCell>
      </root>
    </mxGraphModel>
  </diagram>
</mxfile>
